<svg width="20" height="25" viewBox="0 0 20 25" fill="none" xmlns="http://www.w3.org/2000/svg">
    <path d="M17.1875 2.12484e-08C17.9002 -8.75273e-05 18.5863 0.270369 19.1072 0.756712C19.6281 1.24305 19.945 1.90901 19.9938 2.62L20 2.81125V22.1837C20.0001 22.8964 19.7296 23.5825 19.2433 24.1034C18.7569 24.6244 18.091 24.9412 17.38 24.99L17.1875 24.9962H2.8125C2.09984 24.9963 1.41372 24.7259 0.892809 24.2395C0.371893 23.7532 0.0550277 23.0872 0.00625017 22.3762L2.12484e-08 22.1862V2.8125C-8.75273e-05 2.09984 0.270369 1.41372 0.756711 0.892808C1.24305 0.371893 1.90901 0.0550276 2.62 0.00625016L2.8125 2.12484e-08H17.1875ZM17.1875 1.875H2.8125C2.58595 1.87501 2.36707 1.95705 2.19634 2.10596C2.0256 2.25486 1.91456 2.46056 1.88375 2.685L1.875 2.8125V22.185C1.875 22.66 2.2275 23.0525 2.685 23.1137L2.8125 23.1225H17.1875C17.4141 23.1225 17.6329 23.0404 17.8037 22.8915C17.9744 22.7426 18.0854 22.5369 18.1163 22.3125L18.125 22.185V2.8125C18.125 2.58595 18.0429 2.36707 17.894 2.19634C17.7451 2.0256 17.5394 1.91456 17.315 1.88375L17.1875 1.87375V1.875ZM10.31 13.745C10.5492 13.7426 10.7803 13.8317 10.956 13.9941C11.1316 14.1565 11.2386 14.3799 11.2549 14.6186C11.2712 14.8573 11.1956 15.0931 11.0436 15.2779C10.8917 15.4627 10.6748 15.5824 10.4375 15.6125L10.31 15.62H4.6875C4.44997 15.6199 4.22132 15.5297 4.04776 15.3675C3.8742 15.2054 3.76866 14.9834 3.75247 14.7464C3.73628 14.5094 3.81065 14.2751 3.96054 14.0909C4.11044 13.9066 4.32469 13.7861 4.56 13.7537L4.6875 13.745H10.31ZM15.3125 9.99875C15.55 9.99882 15.7787 10.0891 15.9522 10.2512C16.1258 10.4134 16.2313 10.6354 16.2475 10.8723C16.2637 11.1093 16.1894 11.3436 16.0395 11.5279C15.8896 11.7121 15.6753 11.8326 15.44 11.865L15.3125 11.8737H4.6875C4.44828 11.8762 4.21718 11.7871 4.04152 11.6247C3.86586 11.4623 3.75894 11.2388 3.74264 11.0002C3.72635 10.7615 3.80192 10.5256 3.95387 10.3408C4.10582 10.156 4.32267 10.0364 4.56 10.0062L4.6875 9.99875H15.3125ZM15.3125 6.25C15.55 6.25007 15.7787 6.3403 15.9522 6.50246C16.1258 6.66463 16.2313 6.88662 16.2475 7.1236C16.2637 7.36058 16.1894 7.59486 16.0395 7.77912C15.8896 7.96338 15.6753 8.08387 15.44 8.11625L15.3125 8.125H4.6875C4.44997 8.12493 4.22132 8.03469 4.04776 7.87253C3.8742 7.71037 3.76866 7.48838 3.75247 7.2514C3.73628 7.01442 3.81065 6.78013 3.96054 6.59588C4.11044 6.41162 4.32469 6.29113 4.56 6.25875L4.6875 6.24875H15.3125V6.25Z" fill="#46320E" fill-opacity="0.8"/>
</svg>
