<svg width="19" height="19" viewBox="0 0 19 19" fill="none" xmlns="http://www.w3.org/2000/svg">
    <path d="M10.5625 1.21875C10.5625 0.895517 10.4341 0.585523 10.2055 0.356963C9.97698 0.128403 9.66698 0 9.34375 0C9.02052 0 8.71052 0.128403 8.48196 0.356963C8.2534 0.585523 8.125 0.895517 8.125 1.21875V8.125H1.21875C0.895517 8.125 0.585523 8.2534 0.356963 8.48196C0.128403 8.71052 0 9.02052 0 9.34375C0 9.66698 0.128403 9.97698 0.356963 10.2055C0.585523 10.4341 0.895517 10.5625 1.21875 10.5625H8.125V17.4688C8.125 17.792 8.2534 18.102 8.48196 18.3305C8.71052 18.5591 9.02052 18.6875 9.34375 18.6875C9.66698 18.6875 9.97698 18.5591 10.2055 18.3305C10.4341 18.102 10.5625 17.792 10.5625 17.4688V10.5625H17.4688C17.792 10.5625 18.102 10.4341 18.3305 10.2055C18.5591 9.97698 18.6875 9.66698 18.6875 9.34375C18.6875 9.02052 18.5591 8.71052 18.3305 8.48196C18.102 8.2534 17.792 8.125 17.4688 8.125H10.5625V1.21875Z" fill="#213569"/>
</svg>
